<svg xmlns="http://www.w3.org/2000/svg" xmlns:xlink="http://www.w3.org/1999/xlink" version="1.1" x="0px" y="0px" viewBox="0 0 493 625" enable-background="new 0 0 493 500" xml:space="preserve"><g><path d="M246.602,90.021c52.135,0,98.441,24.943,127.648,63.545L318.603,210H493V33.134l-55.174,55.955   C391.986,34.648,323.347,0.036,246.602,0.036C122.172,0.036,19.017,91-0.131,210H91.67C109.428,141,172.059,90.021,246.602,90.021z   "/><path d="M246.602,409.979c-51.039,0-96.491-23.903-125.781-61.123L179.6,290H0v179.836l56.964-57.039   c45.829,53.358,113.78,87.167,189.638,87.167C371.034,499.964,474.185,409,493.337,290h-91.801   C383.774,359,321.14,409.979,246.602,409.979z"/></g></svg>