<svg xmlns="http://www.w3.org/2000/svg" version="1.1" x="0" y="0" viewBox="0 0 493 625" enable-background="new 0 0 493 500" xml:space="preserve"><path d="M246.6 90.02c52.14 0 98.44 24.94 127.65 63.55L318.6 210H493V33.13l-55.17 55.96C391.99 34.65 323.35 0.04 246.6 0.04 122.17 0.04 19.02 91-0.13 210H91.67C109.43 141 172.06 90.02 246.6 90.02z"/><path d="M246.6 409.98c-51.04 0-96.49-23.9-125.78-61.12L179.6 290H0v179.84l56.96-57.04c45.83 53.36 113.78 87.17 189.64 87.17C371.03 499.96 474.19 409 493.34 290h-91.8C383.77 359 321.14 409.98 246.6 409.98z"/></svg>