<svg version="1.1" id="Layer_1" xmlns="http://www.w3.org/2000/svg" x="0" y="0" viewBox="0 0 496.16 496.16" xml:space="preserve" enable-background="new 0 0 496.158 496.158"><path d="M496.16 248.09c0-137.02-111.07-248.08-248.08-248.08C111.07 0 0 111.06 0 248.09c0 137 111.07 248.07 248.08 248.07C385.09 496.16 496.16 385.09 496.16 248.09z" fill="#5bc0de"/><path d="M370.81 235.24L195.86 127.82c-4.78-2.93-11.06-3.06-15.95-0.32 -4.98 2.79-8.07 8.06-8.07 13.76v214c0 5.69 3.08 10.96 8.05 13.75 2.35 1.32 5.02 2.02 7.73 2.02 2.9 0 5.73-0.8 8.21-2.3l174.95-106.58c4.66-2.84 7.56-7.99 7.57-13.44C378.33 243.26 375.45 238.1 370.81 235.24z" fill="#FFF"/></svg>