<svg version="1.1" xmlns="http://www.w3.org/2000/svg" x="0" y="0" viewBox="0 0 1000 1000" enable-background="new 0 0 1000 1000" xml:space="preserve"><path d="M846.4 153.5C753.9 61 630.8 10 500 10c-130.9 0-253.9 51-346.5 143.5C61 246.1 10 369.1 10 500s51 253.9 143.5 346.4C246.1 939 369.1 990 500 990c130.8 0 253.9-51 346.4-143.6C939 753.9 990 630.9 990 500S939 246.1 846.4 153.5zM115 500c0-102.8 40-199.5 112.8-272.2C300.5 155.1 397.2 115 500 115c85.1 0 165.7 27.8 232.4 78.4L193.4 732.4C142.8 665.8 115 585.1 115 500zM772.2 772.3C699.5 845 602.8 885 500 885c-85.1 0-165.7-27.8-232.3-78.4l538.9-538.8C857.2 334.3 885 415 885 500.1 885 602.9 844.9 699.5 772.2 772.3z"/></svg>