<svg x="0" y="0" id="Layer_1" space="preserve" version="1.1" viewBox="0 0 136.74 136.7" xmlns="http://www.w3.org/2000/svg" xmlns:svg="http://www.w3.org/2000/svg" style="enable-background:new 0 0 136.743 136.704;overflow:visible"><defs id="defs23"/><g id="g3"><path d="M136.74 68.33c0 34.84-27.33 64.9-62.04 68.09 -34.73 3.19-67.23-21.23-73.58-55.58 -6.35-34.34 15.08-68.93 48.74-78.37 33.67-9.44 70.04 8.89 82.46 41.57C135.25 51.79 136.74 60.05 136.74 68.33" id="path5" fill="#5471AF"/><radialGradient cx="68.36" cy="68.33" gradientUnits="userSpaceOnUse" id="XMLID_2_" r="63.55"><stop id="stop8" offset="0" stop-color="#D4E4F7"/><stop id="stop10" offset="1" stop-color="#7FB5F7"/></radialGradient><path d="M131.91 68.33c0 34.63-28.92 63.55-63.55 63.55 -34.63 0-63.55-28.92-63.55-63.55 0-34.63 28.92-63.55 63.55-63.55C102.99 4.78 131.91 33.7 131.91 68.33" id="path12" fill="url(#XMLID_2_)"/><path d="M125.78 43.63c5.14 29.93-12.74 59.99-41.48 69.79 -30.49 10.39-64.79-4.97-77.54-34.49 6.13 35.74 42.87 59.23 77.88 49.78C120.78 118.94 140.68 78.1 125.78 43.63" id="path14" fill="#68A0F2"/><path d="M108.05 40.12c-8.79 1.82-18.91-10.63-26.53-13.8C67.28 20.4 49.5 23.15 36.6 31.21c-13.64 8.52-23.35 24.9-24.84 40.97 0 0.05 0 0.06 0 0.03 1.01-9.73 0.33-18.88 4.03-28.29 6.14-15.59 19.42-27.8 35.44-32.71 16.56-5.07 34.66-1.84 48.92 7.82C104.56 22.01 121.51 37.33 108.05 40.12" id="path16" fill="#B3E7FC"/><path d="M52.66 37.58c0 17.68 0 35.35 0 53.02 0 5.4-2.22 15.43 5.68 15.81 6.64 0.32 14.16-8.49 18.84-12.19 7.76-6.12 15.52-12.23 23.28-18.35 7.48-5.9 1.94-10.27-3.6-14.65 -8.33-6.6-16.67-13.2-25-19.8 -2.68-2.12-5.37-4.25-8.05-6.37C61.11 32.91 52.66 32.57 52.66 37.58" id="path18" fill="#FFF"/><path d="M54.66 33.56c-5.17 2.5-2.9 14.43-2.9 18.9 0 11.04 0 22.08 0 33.11 0 4.38-2.16 16.08 1.4 19.72 6.83 6.98 17.41-4.71 22.37-8.62 8.07-6.37 16.15-12.74 24.22-19.1 2-1.58 4.77-3.23 5.61-5.77 1.41-4.23-2.14-6.69-4.95-8.92 -7.93-6.28-15.86-12.56-23.79-18.84C71.04 39.62 62.69 29.68 54.66 33.56M55.62 104.86c-4.18-2.02-2.06-14.49-2.06-17.97 0-11.04 0-22.07 0-33.11 0-3.47-2.08-14.78 0.62-17.7 5.79-6.25 16.2 5.31 20.23 8.51 7.83 6.2 15.67 12.41 23.5 18.61 1.68 1.33 4.42 2.89 5.47 4.86 1.97 3.71-2.34 6.2-4.74 8.1 -7.71 6.08-15.42 12.16-23.13 18.24C71.01 97.94 62.27 108.08 55.62 104.86" id="path20" fill="#5471AF"/></g></svg>