<svg xmlns:svg="http://www.w3.org/2000/svg" xmlns="http://www.w3.org/2000/svg" xmlns:xlink="http://www.w3.org/1999/xlink" x="0" y="0" viewBox="0 0 494.31 504.71" enable-background="new 0 0 494.31 504.70999" id="svg2" version="1"><defs id="defs4"><linearGradient id="linearGradient3378"><stop offset="0" id="stop3380" style="stop-color:#88ff00;stop-opacity:1"/><stop offset="1" id="stop3382" style="stop-color:#257400;stop-opacity:1"/></linearGradient><filter id="filter3398"><feGaussianBlur stdDeviation="1.67" id="feGaussianBlur3400"/></filter><linearGradient xlink:href="#linearGradient3378" id="linearGradient3411" gradientUnits="userSpaceOnUse" x1="595.51" y1="509.84" x2="595.51" y2="329.22"/><linearGradient xlink:href="#linearGradient3378" id="linearGradient3441" gradientUnits="userSpaceOnUse" x1="595.51" y1="509.84" x2="595.51" y2="329.22"/></defs><metadata id="metadata7"/><g id="layer1" transform="translate(-4.2856629,-1.7901679)"><g id="g3446"><path id="rect2568" d="M119.51 12.55L119.51 189.25 21.9 188.83 135.27 341 248.64 493.17 364.35 342.06 480.12 190.88 377.99 190.38 377.99 12.55 119.51 12.55z" style="fill-rule:evenodd;fill:#88f288;stroke-miterlimit:4;stroke-width:18.09;stroke:#008b00"/><path transform="matrix(2.2617387,0,0,2.2617387,-1095.3949,-704.91451)" id="path3364" d="M549.16 395.34C548.34 406.11 535.29 409.55 526.34 407.28 521.18 406.85 515.04 406.58 521.46 412.09 545.77 444.64 570 477.25 594.25 509.84 620.27 475.89 646.29 441.93 672.31 407.97 661.35 407.92 650.4 407.87 639.44 407.84 639.44 381.64 639.44 355.43 639.44 329.22 609.34 329.22 579.25 329.22 549.16 329.22 549.16 351.26 549.16 373.3 549.16 395.34z" style="fill-rule:evenodd;fill:url(#linearGradient3441);filter:url(#filter3398)"/><path id="path3402" d="M124.04 189.25C119.75 199.3 97.27 191.04 85.59 193.64 67.35 193.57 49.12 193.49 30.88 193.42 107.07 290.11 117.76 306.62 162.39 362.24 190.68 223.98 342.83 298.94 373.46 17.07 290.32 17.07 207.18 17.07 124.04 17.07 124.04 74.47 124.04 131.86 124.04 189.25z" style="fill-rule:evenodd;fill:#fff5ee;opacity:0.56"/></g></g></svg>